<svg width="88" height="23" viewBox="0 0 88 23" fill="none" xmlns="http://www.w3.org/2000/svg">
<path d="M78.7656 22.625H75.5625C75.3958 22.625 75.3125 22.5521 75.3125 22.4062L75.2812 0.609375C75.2812 0.442708 75.3646 0.359375 75.5312 0.359375H78.4219L83.8281 12.9688L83.6719 0.609375C83.6719 0.442708 83.7656 0.359375 83.9531 0.359375H87.125C87.25 0.359375 87.3125 0.442708 87.3125 0.609375L87.3438 22.4375C87.3438 22.5625 87.2917 22.625 87.1875 22.625H84.375L78.8281 10.8438L79.0625 22.375C79.0625 22.5417 78.9635 22.625 78.7656 22.625Z" fill="white"/>
<path d="M72.3125 22.625H61.9688C61.8854 22.625 61.8438 22.5729 61.8438 22.4688L61.875 0.484375C61.875 0.401042 61.9167 0.359375 62 0.359375H72.2812C72.3646 0.359375 72.4062 0.411458 72.4062 0.515625V4.09375C72.4062 4.17708 72.3646 4.21875 72.2812 4.21875H65.7188V9.21875H72.2812C72.3646 9.21875 72.4062 9.26042 72.4062 9.34375L72.4375 12.9688C72.4375 13.0521 72.3958 13.0938 72.3125 13.0938H65.7188V18.6875H72.3125C72.3958 18.6875 72.4375 18.7396 72.4375 18.8438V22.5C72.4375 22.5833 72.3958 22.625 72.3125 22.625Z" fill="white"/>
<path d="M55.8594 22.625H52.25C52.1562 22.625 52.1094 22.5729 52.1094 22.4688V4.21875H47.9531C47.849 4.21875 47.7969 4.16667 47.7969 4.0625L47.8281 0.484375C47.8281 0.401042 47.8698 0.359375 47.9531 0.359375H60.1094C60.224 0.359375 60.2812 0.401042 60.2812 0.484375V4.0625C60.2812 4.16667 60.2396 4.21875 60.1562 4.21875H55.9531L55.9844 22.4688C55.9844 22.5729 55.9427 22.625 55.8594 22.625Z" fill="white"/>
<path d="M37.5938 22.625H33.9688C33.8854 22.625 33.8438 22.5729 33.8438 22.4688L33.875 0.484375C33.875 0.401042 33.9271 0.359375 34.0312 0.359375H37.5938C37.6979 0.359375 37.75 0.401042 37.75 0.484375L37.7188 9.1875H42.5156V0.484375C42.5156 0.401042 42.5573 0.359375 42.6406 0.359375H46.2031C46.3073 0.359375 46.3594 0.401042 46.3594 0.484375L46.4219 22.4688C46.4219 22.5729 46.3698 22.625 46.2656 22.625H42.6719C42.5677 22.625 42.5156 22.5729 42.5156 22.4688V13.0625H37.7188V22.4688C37.7188 22.5729 37.6771 22.625 37.5938 22.625Z" fill="white"/>
<path d="M25.2969 22.9375C24.1406 22.9375 23.099 22.651 22.1719 22.0781C21.2344 21.5052 20.4792 20.7344 19.9062 19.7656C19.3438 18.7969 19.0625 17.7135 19.0625 16.5156V6.375C19.0625 5.20833 19.349 4.14583 19.9219 3.1875C20.4844 2.21875 21.2396 1.44792 22.1875 0.875C23.1354 0.291667 24.1719 0 25.2969 0C26.474 0 27.5365 0.28125 28.4844 0.84375C29.4323 1.41667 30.1823 2.18229 30.7344 3.14062C31.2969 4.09896 31.5781 5.17708 31.5781 6.375V7.84375C31.5781 7.92708 31.526 7.96875 31.4219 7.96875H27.8281C27.7448 7.96875 27.7031 7.92708 27.7031 7.84375V6.625C27.7031 5.8125 27.474 5.14062 27.0156 4.60938C26.5573 4.07812 25.9844 3.8125 25.2969 3.8125C24.6823 3.8125 24.1354 4.06771 23.6562 4.57812C23.1771 5.08854 22.9375 5.6875 22.9375 6.375V16.5156C22.9375 17.2135 23.1719 17.8177 23.6406 18.3281C24.1094 18.8281 24.6615 19.0781 25.2969 19.0781C25.9844 19.0781 26.5573 18.8333 27.0156 18.3438C27.474 17.8438 27.7031 17.2344 27.7031 16.5156V14.9375H25.4688C25.3542 14.9375 25.2969 14.8854 25.2969 14.7812V11.2031C25.2969 11.099 25.3542 11.0469 25.4688 11.0469H31.4531C31.5365 11.0469 31.5781 11.099 31.5781 11.2031V16.5156C31.5781 17.7135 31.2969 18.7969 30.7344 19.7656C30.1615 20.7344 29.4062 21.5052 28.4688 22.0781C27.5312 22.651 26.474 22.9375 25.2969 22.9375Z" fill="white"/>
<path d="M16.5 22.625H12.875C12.7708 22.625 12.7188 22.5729 12.7188 22.4688L12.75 0.484375C12.75 0.401042 12.7917 0.359375 12.875 0.359375H16.4688C16.5521 0.359375 16.5938 0.401042 16.5938 0.484375L16.625 22.4688C16.625 22.5729 16.5833 22.625 16.5 22.625Z" fill="white"/>
<path d="M10.4688 22.625H0.125C0.0416667 22.625 0 22.5729 0 22.4688L0.03125 0.515625C0.03125 0.411458 0.0833333 0.359375 0.1875 0.359375H3.75C3.85417 0.359375 3.90625 0.411458 3.90625 0.515625L3.875 18.6875H10.4688C10.5729 18.6875 10.625 18.7396 10.625 18.8438V22.4688C10.625 22.5729 10.5729 22.625 10.4688 22.625Z" fill="white"/>
</svg>
